#!OML:ASF E:\motion texture\Top Level 1\Subject 1\Session 1\male.ASF
:FULLY-SPECIFIED
:DEGREES
384
root -3.5329 18.1676 1.83152 87.4206 -81.7258 -79.0932
lowerback -0.927192 -0.474519 7.03443
upperback -2.24227 -0.672869 3.29572
thorax -1.83435 -0.468593 -0.534344
lowerneck -8.61185 -12.3615 -14.1962
upperneck 4.55473 -15.6559 9.78936
head 4.62437 -7.59876 3.97786
rclavicle -8.94531e-016 1.19271e-015
rhumerus -41.6144 -24.8545 -58.9597
rradius 19.2347
rwrist 20.6064
rhand -13.3617 -31.5066
rfingers 7.12502
rthumb 12.7445 -421.098
lclavicle -8.94531e-016 1.19271e-015
lhumerus -52.7188 26.2547 58.3297
lradius 20.6688
lwrist -26.2962
lhand -13.1758 22.9115
lfingers 7.12502
lthumb 12.9237 52.4913
rfemur -10.2162 6.37364 32.9586
rtibia 12.9763
rfoot -6.71322 -10.979
rtoes 17.1857
lfemur -27.4408 0.260871 -6.66119
ltibia 48.1897
lfoot -6.05244 -0.000841457
ltoes -15.7546
385
root -3.6563 18.1622 1.82765 89.2072 -81.6919 -80.9014
lowerback -0.941608 -0.405957 7.09438
upperback -2.24335 -0.582815 3.25032
thorax -1.82319 -0.424622 -0.615283
lowerneck -8.61149 -12.362 -14.2199
upperneck 4.7147 -15.6671 9.81714
head 4.67935 -7.60342 3.98387
rclavicle 2.73329e-016 7.35503e-015
rhumerus -40.7985 -24.687 -59.6133
rradius 19.3509
rwrist 20.4632
rhand -13.7172 -31.6198
rfingers 7.12502
rthumb 12.4018 -421.232
lclavicle 2.73329e-016 7.35503e-015
lhumerus -52.0893 25.692 59.3244
lradius 21.2216
lwrist -25.3345
lhand -13.2631 22.832
lfingers 7.12502
lthumb 12.8396 52.4171
rfemur -9.70456 6.48094 33.1343
rtibia 12.9544
rfoot -7.04626 -10.8867
rtoes 16.8813
lfemur -27.9149 0.368411 -6.41068
ltibia 47.2389
lfoot -6.39378 0.610547
ltoes -15.5186
386
root -3.77935 18.1561 1.82412 90.9578 -81.6532 -82.6664
lowerback -0.9634 -0.339214 7.15045
upperback -2.24594 -0.495846 3.20354
thorax -1.80929 -0.382074 -0.695478
lowerneck -8.61369 -12.361 -14.243
upperneck 4.8769 -15.6764 9.845
head 4.73521 -7.60704 3.98991
rclavicle 8.82107e-016 8.94531e-015
rhumerus -39.9446 -24.442 -60.3468
rradius 19.4954
rwrist 20.2664
rhand -14.0254 -31.7196
rfingers 7.12502
rthumb 12.1046 -421.349
lclavicle 8.82107e-016 8.94531e-015
lhumerus -51.4542 25.1338 60.2978
lradius 21.7882
lwrist -24.4087
lhand -13.3569 22.7589
lfingers 7.12502
lthumb 12.7492 52.3497
rfemur -9.20837 6.58341 33.3007
rtibia 12.9445
rfoot -7.37893 -10.7968
rtoes 16.5669
lfemur -28.3551 0.46519 -6.16325
ltibia 46.1819
lfoot -6.69227 1.17882
ltoes -15.2834
387
root -3.9021 18.1492 1.82096 92.6706 -81.61 -84.387
lowerback -0.990506 -0.274636 7.20271
upperback -2.25103 -0.412173 3.15579
thorax -1.79487 -0.341141 -0.774481
lowerneck -8.61886 -12.3583 -14.2639
upperneck 5.0428 -15.6835 9.87028
head 4.79207 -7.60957 3.99491
rclavicle 1.15792e-014 -2.90226e-014
rhumerus -39.0601 -24.1157 -61.1519
rradius 19.6706
rwrist 20.0129
rhand -14.3024 -31.7914
rfingers 7.12502
rthumb 11.8375 -421.437
lclavicle 1.15792e-014 -2.90226e-014
lhumerus -50.8172 24.5795 61.247
lradius 22.3668
lwrist -23.5238
lhand -13.4552 22.6928
lfingers 7.12502
lthumb 12.6543 52.2895
rfemur -8.72665 6.68152 33.4578
rtibia 12.946
rfoot -7.71051 -10.7098
rtoes 16.2397
lfemur -28.7615 0.550221 -5.91906
ltibia 45.0283
lfoot -6.95206 1.70291
ltoes -15.0614
388
root -4.02466 18.1416 1.81823 94.3412 -81.5623 -86.0589
lowerback -1.02285 -0.212544 7.25175
upperback -2.25823 -0.332254 3.10767
thorax -1.77962 -0.302047 -0.852001
lowerneck -8.62852 -12.3542 -14.2836
upperneck 5.21246 -15.6883 9.89382
head 4.85037 -7.61094 3.99921
rclavicle 1.4474e-015 1.85864e-014
rhumerus -38.1497 -23.7004 -62.0245
rradius 19.8818
rwrist 19.6962
rhand -14.5398 -31.85
rfingers 7.12502
rthumb 11.6086 -421.508
lclavicle 1.4474e-015 1.85864e-014
lhumerus -50.1793 24.0266 62.1738
lradius 22.9573
lwrist -22.6783
lhand -13.5566 22.6343
lfingers 7.12502
lthumb 12.5566 52.237
rfemur -8.25874 6.77305 33.6057
rtibia 12.9593
rfoot -8.04175 -10.6236
rtoes 15.9001
lfemur -29.135 0.621803 -5.67873
ltibia 43.7882
lfoot -7.17528 2.18277
ltoes -14.874
389
root -4.1471 18.1334 1.81595 95.9709 -81.5099 -87.6842
lowerback -1.06018 -0.152936 7.29867
upperback -2.2672 -0.256094 3.05957
thorax -1.76339 -0.264806 -0.928231
lowerneck -8.64262 -12.3482 -14.3022
upperneck 5.38532 -15.6904 9.91591
head 4.90988 -7.61088 4.00296
rclavicle 3.2054e-015 9.64106e-015
rhumerus -37.2209 -23.1971 -62.9542
rradius 20.132
rwrist 19.3202
rhand -14.7453 -31.8854
rfingers 7.12502
rthumb 11.4104 -421.555
lclavicle 3.2054e-015 9.64106e-015
lhumerus -49.5425 23.4751 63.0765
lradius 23.5585
lwrist -21.8747
lhand -13.6629 22.5791
lfingers 7.12502
lthumb 12.4542 52.188
rfemur -7.80398 6.8595 33.745
rtibia 12.9846
rfoot -8.37294 -10.5383
rtoes 15.5522
lfemur -29.4767 0.679372 -5.44159
ltibia 42.4749
lfoot -7.36374 2.62104
ltoes -14.7202
390
root -4.26953 18.1245 1.81416 97.5604 -81.452 -89.2647
lowerback -1.10072 -0.0958167 7.34499
upperback -2.27859 -0.183499 3.01179
thorax -1.74786 -0.229419 -1.00368
lowerneck -8.65862 -12.3397 -14.3186
upperneck 5.56014 -15.6893 9.93583
head 4.96961 -7.60927 4.00608
rclavicle 5.72748e-015 -2.96189e-014
rhumerus -36.283 -22.6075 -63.9297
rradius 20.4228
rwrist 18.8858
rhand -14.9146 -31.9053
rfingers 7.12502
rthumb 11.2471 -421.584
lclavicle 5.72748e-015 -2.96189e-014
lhumerus -48.9104 22.9264 63.9516
lradius 24.1683
lwrist -21.1177
lhand -13.7697 22.5264
lfingers 7.12502
lthumb 12.3512 52.1415
rfemur -7.36105 6.93837 33.8767
rtibia 13.0223
rfoot -8.7026 -10.451
rtoes 15.1882
lfemur -29.7853 0.721949 -5.20674
ltibia 41.0987
lfoot -7.51557 3.01873
ltoes -14.6017
391
root -4.392 18.115 1.81297 99.1073 -81.3882 -90.7979
lowerback -1.14513 -0.0414077 7.39206
upperback -2.29222 -0.114868 2.96486
thorax -1.73254 -0.196097 -1.07857
lowerneck -8.67926 -12.3293 -14.3328
upperneck 5.73921 -15.6853 9.95206
head 5.03063 -7.60622 4.00782
rclavicle 5.86415e-015 -1.15295e-014
rhumerus -35.3434 -21.9312 -64.9418
rradius 20.7583
rwrist 18.3961
rhand -15.0535 -31.9081
rfingers 7.12502
rthumb 11.1131 -421.594
lclavicle 5.86415e-015 -1.15295e-014
lhumerus -48.2838 22.3768 64.8024
lradius 24.7882
lwrist -20.4021
lhand -13.8743 22.4833
lfingers 7.12502
lthumb 12.2503 52.1045
rfemur -6.92981 7.00962 34.0014
rtibia 13.072
rfoot -9.03057 -10.361
rtoes 14.8093
lfemur -30.0629 0.749249 -4.9743
ltibia 39.6728
lfoot -7.63064 3.37893
ltoes -14.5302
392
root -4.51455 18.1049 1.8124 100.621 -81.3181 -92.2937
lowerback -1.19317 0.0109609 7.44085
upperback -2.3073 -0.0493465 2.91916
thorax -1.71671 -0.164397 -1.15304
lowerneck -8.70468 -12.3174 -14.3443
upperneck 5.92093 -15.679 9.96524
head 5.09253 -7.60197 4.0083
rclavicle 2.64011e-015 6.90777e-015
rhumerus -34.4085 -21.1797 -65.9765
rradius 21.1379
rwrist 17.864
rhand -15.16 -31.8949
rfingers 7.12502
rthumb 11.0104 -421.586
lclavicle 2.64011e-015 6.90777e-015
lhumerus -47.6636 21.8262 65.6289
lradius 25.4172
lwrist -19.7276
lhand -13.9795 22.4437
lfingers 7.12502
lthumb 12.1489 52.071
rfemur -6.50898 7.07462 34.1195
rtibia 13.1332
rfoot -9.35633 -10.2677
rtoes 14.4145
lfemur -30.3099 0.762206 -4.74387
ltibia 38.2104
lfoot -7.70962 3.70283
ltoes -14.5057
393
root -4.63753 18.0943 1.81236 102.092 -81.2414 -93.7443
lowerback -1.24388 0.0614206 7.49092
upperback -2.32435 0.0133525 2.87532
thorax -1.70143 -0.134214 -1.2262
lowerneck -8.73161 -12.3027 -14.3547
upperneck 6.1031 -15.6689 9.9775
head 5.15427 -7.59584 4.0088
rclavicle -2.32951e-015 4.1049e-014
rhumerus -33.4873 -20.3602 -67.0212
rradius 21.5611
rwrist 17.2956
rhand -15.2361 -31.8671
rfingers 7.12502
rthumb 10.937 -421.562
lclavicle -2.32951e-015 4.1049e-014
lhumerus -47.0521 21.2747 66.4299
lradius 26.0525
lwrist -19.095
lhand -14.0873 22.3994
lfingers 7.12502
lthumb 12.0449 52.0328
rfemur -6.09659 7.13435 34.2325
rtibia 13.2067
rfoot -9.6786 -10.1725
rtoes 13.9968
lfemur -30.5242 0.759621 -4.51476
ltibia 36.7222
lfoot -7.75795 3.99354
ltoes -14.5163
394
root -4.76079 18.0832 1.81303 103.531 -81.1584 -95.1596
lowerback -1.29813 0.109808 7.54302
upperback -2.34326 0.072896 2.83344
thorax -1.68614 -0.105716 -1.29834
lowerneck -8.763 -12.2862 -14.3612
upperneck 6.28854 -15.656 9.98425
head 5.21667 -7.5884 4.00718
rclavicle -4.04558e-015 1.19519e-014
rhumerus -32.585 -19.481 -68.0662
rradius 22.0287
rwrist 16.7041
rhand -15.295 -31.8146
rfingers 7.12502
rthumb 10.8803 -421.513
lclavicle -4.04558e-015 1.19519e-014
lhumerus -46.4515 20.7232 67.205
lradius 26.6944
lwrist -18.5022
lhand -14.1928 22.3566
lfingers 7.12502
lthumb 11.9432 51.9959
rfemur -5.69401 7.18892 34.3392
rtibia 13.2928
rfoot -9.99773 -10.0737
rtoes 13.5589
lfemur -30.709 0.742668 -4.28898
ltibia 35.2219
lfoot -7.77664 4.25306
ltoes -14.5748
395
root -4.88473 18.0718 1.81426 104.934 -81.0688 -96.5371
lowerback -1.35485 0.156158 7.59623
upperback -2.36326 0.129398 2.79409
thorax -1.67067 -0.0787999 -1.36841
lowerneck -8.79534 -12.2673 -14.3682
upperneck 6.47087 -15.6399 9.99334
head 5.2782 -7.57933 4.00683
rclavicle -4.55263e-015 2.52705e-014
rhumerus -31.7056 -18.5527 -69.1023
rradius 22.5372
rwrist 16.0966
rhand -15.3393 -31.7399
rfingers 7.12502
rthumb 10.8375 -421.44
lclavicle -4.55263e-015 2.52705e-014
lhumerus -45.8621 20.1734 67.9531
lradius 27.3398
lwrist -17.9495
lhand -14.2964 22.312
lfingers 7.12502
lthumb 11.8433 51.9571
rfemur -5.29851 7.2403 34.4415
rtibia 13.3924
rfoot -10.3138 -9.97332
rtoes 13.1035
lfemur -30.861 0.711176 -4.06524
ltibia 33.7176
lfoot -7.76289 4.47824
ltoes -14.662
396
root -5.00927 18.0599 1.81618 106.307 -80.977 -97.883
lowerback -1.41436 0.20097 7.64752
upperback -2.3858 0.183604 2.75605
thorax -1.65628 -0.0531146 -1.43596
lowerneck -8.83028 -12.2462 -14.3725
upperneck 6.65665 -15.6207 9.99863
head 5.34035 -7.56875 4.00522
rclavicle 1.34044e-015 6.86428e-016
rhumerus -30.857 -17.5842 -70.1199
rradius 23.0865
rwrist 15.4817
rhand -15.3728 -31.6409
rfingers 7.12502
rthumb 10.8052 -421.343
lclavicle 1.34044e-015 6.86428e-016
lhumerus -45.2879 19.6246 68.6743
lradius 27.9881
lwrist -17.4364
lhand -14.3998 22.2641
lfingers 7.12502
lthumb 11.7436 51.9149
rfemur -4.91145 7.28771 34.5336
rtibia 13.5068
rfoot -10.626 -9.87042
rtoes 12.6263
lfemur -30.984 0.664342 -3.84951
ltibia 32.2213
lfoot -7.70684 4.66866
ltoes -14.7634
397
root -5.13451 18.0478 1.8188 107.659 -80.8832 -99.2065
lowerback -1.47659 0.244173 7.69629
upperback -2.41027 0.235402 2.71921
thorax -1.6424 -0.0286719 -1.50078
lowerneck -8.86846 -12.223 -14.3731
upperneck 6.84443 -15.5987 10.0003
head 5.40278 -7.5568 4.0022
rclavicle 7.77512e-015 -9.46712e-015
rhumerus -30.0404 -16.5859 -71.114
rradius 23.6748
rwrist 14.8676
rhand -15.3983 -31.5195
rfingers 7.12502
rthumb 10.7806 -421.223
lclavicle 7.77512e-015 -9.46712e-015
lhumerus -44.7289 19.077 69.3689
lradius 28.6386
lwrist -16.9574
lhand -14.5011 22.2166
lfingers 7.12502
lthumb 11.6459 51.8729
rfemur -4.53275 7.33396 34.6154
rtibia 13.6374
rfoot -10.9338 -9.76652
rtoes 12.1291
lfemur -31.0783 0.601478 -3.64205
ltibia 30.7404
lfoot -7.60756 4.83755
ltoes -14.8697
